<svg viewBox="0 0 99 52.4" xmlns="http://www.w3.org/2000/svg" xmlns:xlink="http://www.w3.org/1999/xlink" id="图层_1" overflow="hidden"><defs></defs><path d="M41.8 9.6 42.7 10.8C43.0506 11.2152 43.1973 11.7654 43.1 12.3 43 12.9 42.5 13.2 41.8 13.2 41.1 13.2 40.6 12.9 40.5 12.4 40.4564 11.8224 40.6353 11.25 41 10.8L41.8 9.6M41.8 0 36.4 7.6C35.1622 9.26166 34.6565 11.3567 35 13.4 35.6384 16.5664 38.4717 18.8077 41.7 18.7 44.9423 18.8506 47.8002 16.5899 48.4 13.4 48.7791 11.3702 48.3092 9.27376 47.1 7.6L41.8 0Z" fill="#FFFFFF"/><path d="M58 9.6 58.9 10.8C59.2506 11.2152 59.3973 11.7654 59.3 12.3 59.2 12.9 58.7 13.2 58 13.2 57.3 13.2 56.8 12.9 56.7 12.4 56.6564 11.8224 56.8353 11.25 57.2 10.8L58 9.6M58 0 52.6 7.6C51.3622 9.26166 50.8565 11.3567 51.2 13.4 51.8384 16.5664 54.6717 18.8077 57.9 18.7 61.1423 18.8506 64.0002 16.5899 64.6 13.4 64.9791 11.3702 64.5092 9.27376 63.3 7.6L58 0Z" fill="#FFFFFF"/><path d="M99 52.4 40 52.4 0 12.5 28.7 12.5 28.7 18 13.3 18 42.2 46.9 85.7 46.9 63.8 25.1 67.7 21.2 99 52.4Z" fill="#FFFFFF"/><rect x="43.49" y="23.79" width="5.5" height="18.3" fill="#FFFFFF" transform="matrix(0.707107 -0.707107 0.707107 0.707107 -9.75 42.34)"/><rect x="56.19" y="23.78" width="5.5" height="18.3" fill="#FFFFFF" transform="matrix(0.707107 -0.707107 0.707107 0.707107 -6.02 51.33)"/></svg>